<?xml version="1.0" encoding="utf-8"?>
<!-- Generator: Adobe Illustrator 26.3.1, SVG Export Plug-In . SVG Version: 6.00 Build 0)  -->
<svg version="1.1" xmlns="http://www.w3.org/2000/svg" xmlns:xlink="http://www.w3.org/1999/xlink" x="0px" y="0px"
	 viewBox="0 0 99.8 99.7" style="enable-background:new 0 0 99.8 99.7;" xml:space="preserve">
<style type="text/css">
	.Graphic_x0020_Style{stroke:#000000;stroke-width:0.7494;}
	.Graphic_x0020_Style_x0020_3{stroke:#000000;stroke-width:0.3056;}
	.st0{fill:none;}
	.st1{fill:#FFFFFF;stroke:#000201;stroke-width:1.6879;stroke-linecap:round;stroke-miterlimit:10;}
	.st2{fill:#FFFFFF;stroke:#000201;stroke-width:0.7491;stroke-miterlimit:10;}
	.st3{fill:#FFFFFF;}
	.st4{fill:none;stroke:#000000;stroke-width:0.7494;}
	
		.st5{fill:none;stroke:#000201;stroke-width:2.4305;stroke-linecap:round;stroke-linejoin:round;stroke-miterlimit:10;stroke-dasharray:0,0,0,0,0,8.912;}
	.st6{fill:none;stroke:#000201;stroke-width:1.6879;stroke-linecap:round;stroke-miterlimit:10;}
	.st7{fill:#000201;}
	.st8{fill:#FFFFFF;stroke:#000201;stroke-width:1.5884;stroke-linecap:round;stroke-miterlimit:10;}
	
		.st9{fill:none;stroke:#000201;stroke-width:2.2872;stroke-linecap:round;stroke-linejoin:round;stroke-miterlimit:10;stroke-dasharray:0,0,0,0,0,8.3865;}
	.st10{fill:#FFFFFF;stroke:#000201;stroke-width:0.8487;stroke-linecap:round;stroke-linejoin:round;stroke-miterlimit:10;}
	.st11{fill:none;stroke:#000000;stroke-width:0.8911;}
	
		.st12{fill:none;stroke:#000201;stroke-width:2.4299;stroke-linecap:round;stroke-linejoin:round;stroke-miterlimit:10;stroke-dasharray:0,0,0,0,0,8.9097;}
	.st13{fill:#FFFFFF;stroke:#000201;stroke-width:1.6875;stroke-linecap:round;stroke-miterlimit:10;}
	.st14{fill:#FFFFFF;stroke:#000201;stroke-width:0.7315;stroke-miterlimit:10;}
	.st15{fill:none;stroke:#000000;stroke-width:0.7318;}
	.st16{fill:none;stroke:#000201;stroke-width:1.6875;stroke-linecap:round;stroke-linejoin:round;stroke-miterlimit:10;}
	.st17{fill:#FFFFFF;stroke:#000201;stroke-width:1.6868;stroke-linecap:round;stroke-miterlimit:10;}
	
		.st18{fill:none;stroke:#000201;stroke-width:2.429;stroke-linecap:round;stroke-linejoin:round;stroke-miterlimit:10;stroke-dasharray:0,0,0,0,0,8.9064;}
	.st19{fill:#FFFFFF;stroke:#000201;stroke-width:0.9913;stroke-miterlimit:10;}
	.st20{fill:none;stroke:#000000;stroke-width:0.8833;}
	.st21{fill:none;stroke:#000201;stroke-width:1.6868;stroke-linecap:round;stroke-miterlimit:10;}
	.st22{fill:#FFFFFF;stroke:#000201;stroke-width:1.6869;stroke-linecap:round;stroke-miterlimit:10;}
	
		.st23{fill:none;stroke:#000201;stroke-width:2.4292;stroke-linecap:round;stroke-linejoin:round;stroke-miterlimit:10;stroke-dasharray:0,0,0,0,0,8.9069;}
	.st24{fill:none;stroke:#000201;stroke-width:1.6869;stroke-linecap:round;stroke-linejoin:round;stroke-miterlimit:10;}
	.st25{fill:#92FFC6;stroke:#000000;stroke-width:1.4999;stroke-linejoin:round;stroke-miterlimit:10;}
	.st26{fill:none;stroke:#000000;stroke-width:0.968;}
	.st27{fill:#FFFFFF;stroke:#000201;stroke-width:0.813;stroke-linecap:round;stroke-linejoin:round;stroke-miterlimit:10;}
	.st28{fill:none;stroke:#000000;stroke-width:0.8133;}
	.st29{fill:none;stroke:#000201;stroke-width:2.4659;stroke-linecap:round;stroke-linejoin:round;}
	.st30{fill:none;stroke:#000201;stroke-width:2.4659;stroke-linecap:round;stroke-linejoin:round;stroke-dasharray:0,0,0,8.7684;}
	
		.st31{fill:none;stroke:#000201;stroke-width:2.4659;stroke-linecap:round;stroke-linejoin:round;stroke-dasharray:0,0,0,0,0,8.7684;}
	.st32{fill:#FFFFFF;stroke:#000201;stroke-width:1.6439;stroke-linecap:round;stroke-linejoin:round;stroke-miterlimit:10;}
	.st33{fill:none;stroke:#000201;stroke-width:1.6439;stroke-linecap:round;stroke-linejoin:round;stroke-miterlimit:10;}
	.st34{fill:#FFFFFF;stroke:#000201;stroke-width:1.6841;stroke-linecap:round;stroke-miterlimit:10;}
	
		.st35{fill:none;stroke:#000201;stroke-width:2.425;stroke-linecap:round;stroke-linejoin:round;stroke-miterlimit:10;stroke-dasharray:0,0,0,0,0,8.8917;}
	.st36{fill:none;stroke:#000201;stroke-width:1.6841;stroke-linecap:round;stroke-miterlimit:10;}
	.st37{fill:none;stroke:#000000;stroke-width:0.6082;}
	.st38{fill:#FFFFFF;stroke:#000201;stroke-width:0.608;stroke-miterlimit:10;}
	.st39{fill:none;stroke:#000000;stroke-width:0.542;stroke-miterlimit:10;}
	.st40{fill:#FFFFFF;stroke:#000201;stroke-width:0.6591;stroke-linecap:round;stroke-miterlimit:10;}
	.st41{fill:#FFFFFF;stroke:#000201;stroke-width:1.6881;stroke-linecap:round;stroke-linejoin:round;stroke-miterlimit:10;}
	
		.st42{fill:none;stroke:#000201;stroke-width:2.4309;stroke-linecap:round;stroke-linejoin:round;stroke-miterlimit:10;stroke-dasharray:0,0,0,0,0,8.9132;}
	.st43{fill:none;stroke:#000000;stroke-width:2.5322;stroke-linecap:round;stroke-linejoin:round;stroke-miterlimit:10;}
	.st44{fill:none;stroke:#000000;stroke-width:0.6658;}
	.st45{fill:#FFB600;}
	.st46{fill-rule:evenodd;clip-rule:evenodd;fill:#FFB600;}
	.st47{fill:#FFFFFF;stroke:#000201;stroke-width:0.8753;stroke-linecap:round;stroke-miterlimit:10;}
	.st48{fill:#FFFFFF;stroke:#000201;stroke-width:0.3737;stroke-miterlimit:10;}
	.st49{fill:none;stroke:#000201;stroke-width:0.8753;stroke-linecap:round;stroke-miterlimit:10;}
	.st50{fill:none;stroke:#000000;stroke-width:1.3129;stroke-linecap:round;stroke-linejoin:round;stroke-miterlimit:10;}
	
		.st51{fill:none;stroke:#000201;stroke-width:1.2603;stroke-linecap:round;stroke-linejoin:round;stroke-miterlimit:10;stroke-dasharray:0,0,0,0,0,4.6212;}
	.st52{fill:#FFFFFF;stroke:#000201;stroke-width:1.1018;stroke-miterlimit:10;}
	.st53{fill:#FFFFFF;stroke:#000201;stroke-width:0.7975;stroke-linecap:round;stroke-linejoin:round;stroke-miterlimit:10;}
	.st54{fill:#FFFFFF;stroke:#000201;stroke-width:1.0688;stroke-miterlimit:10;}
	.st55{fill:#92FFC6;stroke:#000000;stroke-width:1.3257;stroke-linejoin:round;stroke-miterlimit:10;}
	.st56{fill:#FFFFFF;stroke:#000201;stroke-width:0.9044;stroke-miterlimit:10;}
	.st57{fill:none;stroke:#000000;stroke-width:0.8063;stroke-miterlimit:10;}
	.st58{fill:#FFFFFF;stroke:#000201;stroke-width:0.9804;stroke-linecap:round;stroke-miterlimit:10;}
	.st59{fill:#FFFFFF;stroke:#000201;stroke-width:0.7494;stroke-linecap:round;stroke-miterlimit:10;}
	.st60{fill:none;stroke:#FF0000;stroke-width:0.2382;stroke-miterlimit:10;}
	.st61{fill:#FF0000;}
	.st62{fill:none;stroke:#FF0000;stroke-width:0.3231;stroke-miterlimit:10;}
	.st63{fill:none;stroke:#FF0000;stroke-width:0.3124;stroke-miterlimit:10;}
	.st64{fill:none;stroke:#FF0000;stroke-width:0.2497;stroke-miterlimit:10;}
	.st65{fill:#FFFFFF;stroke:#000201;stroke-width:1.1877;stroke-linecap:round;stroke-linejoin:round;stroke-miterlimit:10;}
	.st66{fill:none;stroke:#FF0000;stroke-width:0.3504;stroke-miterlimit:10;}
	.st67{fill:none;stroke:#FF0000;stroke-width:0.4753;stroke-miterlimit:10;}
	.st68{fill:none;stroke:#FF0000;stroke-width:0.4595;stroke-miterlimit:10;}
	.st69{fill:none;stroke:#FF0000;stroke-width:0.3673;stroke-miterlimit:10;}
	.st70{fill:#FFFFFF;stroke:#000201;stroke-width:0.9281;stroke-miterlimit:10;}
	.st71{fill:#FFFFFF;stroke:#000201;stroke-width:0.3592;stroke-miterlimit:10;}
	.st72{fill:none;stroke:#000000;stroke-width:0.3056;}
	.st73{fill:none;stroke:#000201;stroke-linecap:round;stroke-linejoin:round;stroke-miterlimit:10;stroke-dasharray:0,0,0,0,0,3;}
	.st74{fill:none;stroke:#000201;stroke-width:0.7494;stroke-linecap:round;stroke-miterlimit:10;}
	.st75{fill:#FFFFFF;stroke:#000201;stroke-width:0.7494;stroke-miterlimit:10;}
	.st76{fill:none;stroke:#000000;stroke-width:0.7494;stroke-linecap:round;stroke-miterlimit:10;}
	.st77{fill:none;stroke:#000000;stroke-width:0.7494;stroke-miterlimit:10;}
	.st78{fill:none;stroke:#000000;stroke-miterlimit:10;}
	.st79{fill:none;stroke:#000000;stroke-width:0.9986;stroke-miterlimit:10;}
</style>
<g id="Layer_1">
	<g>
		<g>
			<polyline class="st70" points="68.7,88.6 74.1,84.1 82.8,82.2 76.5,26.1 70.7,26 			"/>
			<path class="st70" d="M51,11c0,0,13.2-0.5,17.9,14.2L64.2,25c0,0-1-4.2-5.1-6.8"/>
			<path class="st70" d="M28.4,24.2c0,0,40.2,0.5,42.3,1.2l-2,63.2L17.1,76.8L28.4,24.2z"/>
			<path class="st70" d="M34.3,33.9c0,0-5.2-7.5,5.3-18.4c0,0,3-3.2,9.3-4.4c2.8-0.5,5.6,0.1,7.7,2c1.3,1.3,2.5,3.2,2.6,5.9l1,14.4
				c0,0,0.3,2.7-1.7,2.4c0,0-3.5-0.4-3.5-4.6c0,0,1.1-9.5-1-14.1c-0.7-1.5-2.3-2.2-3.8-1.9c-1.6,0.3-4.1,1.1-6.5,2.6
				c0,0-6.4,4-6.2,11.9C37.5,29.8,37.6,35.5,34.3,33.9z"/>
		</g>
		<g>
			<path d="M68.7,89.1c-0.2,0-0.3-0.1-0.4-0.2c-0.2-0.2-0.2-0.6,0.1-0.8l5.5-4.5c0.1-0.1,0.1-0.1,0.2-0.1l8.2-1.8L76,26.6l-5.3-0.1
				c-0.3,0-0.5-0.3-0.5-0.6c0-0.3,0.2-0.5,0.5-0.5c0,0,0,0,0,0l5.8,0.1c0.3,0,0.5,0.2,0.5,0.5l6.3,56.1c0,0.3-0.2,0.5-0.4,0.6
				l-8.5,1.9L69,89C68.9,89.1,68.8,89.1,68.7,89.1z"/>
			<path d="M68.8,25.8C68.8,25.8,68.8,25.8,68.8,25.8l-4.6-0.2c-0.2,0-0.4-0.2-0.5-0.4c0,0-1-4-4.9-6.5c-0.3-0.2-0.3-0.5-0.2-0.8
				c0.2-0.3,0.5-0.3,0.8-0.2c3.5,2.3,4.9,5.6,5.2,6.8l3.4,0.2C63.4,11.2,51.5,11.5,51,11.5c-0.3,0-0.6-0.2-0.6-0.5s0.2-0.6,0.5-0.6
				c0.1,0,13.7-0.4,18.4,14.6c0.1,0.2,0,0.4-0.1,0.5C69.2,25.7,69,25.8,68.8,25.8z"/>
			<path d="M68.7,89.1c0,0-0.1,0-0.1,0L16.9,77.3c-0.3-0.1-0.5-0.4-0.4-0.6l11.3-52.6c0.1-0.3,0.3-0.4,0.5-0.4c0,0,0,0,0,0
				c4.1,0.1,40.4,0.5,42.4,1.3c0.2,0.1,0.4,0.3,0.4,0.5l-2,63.2c0,0.2-0.1,0.3-0.2,0.4C68.9,89.1,68.8,89.1,68.7,89.1z"/>
			<path d="M58.8,36.4c-0.1,0-0.2,0-0.3,0c0,0-4-0.5-4-5.1c0-0.2,1.1-9.5-1-13.9c-0.5-1-1.5-1.7-2.6-1.7c-0.2,0-0.4,0-0.6,0.1
				c-1.6,0.3-4,1.1-6.3,2.5c-0.1,0-6.1,3.9-5.9,11.4c0,0.3,0,3.1-1.3,4.4c-0.4,0.4-0.9,0.6-1.5,0.6c-0.4,0-0.8-0.1-1.3-0.3
				c-0.1,0-0.2-0.1-0.2-0.2c-0.2-0.3-5.3-8,5.3-19.1c0.1-0.1,3.1-3.4,9.6-4.5c0.7-0.1,1.3-0.2,2-0.2c2.4,0,4.6,0.8,6.2,2.3
				c1.7,1.6,2.6,3.7,2.8,6.3l1,14.4c0,0.1,0.1,1.6-0.6,2.4C59.8,36.2,59.3,36.4,58.8,36.4z"/>
		</g>
		<g>
			<path d="M69.3,89.8c-0.2,0-0.3-0.1-0.4-0.2c-0.2-0.2-0.2-0.6,0.1-0.8l5.5-4.5c0.1-0.1,0.1-0.1,0.2-0.1l8.2-1.8l-6.2-55.1
				l-5.3-0.1c-0.3,0-0.5-0.3-0.5-0.6c0-0.3,0.2-0.5,0.5-0.5c0,0,0,0,0,0l5.8,0.1c0.3,0,0.5,0.2,0.5,0.5L84,82.8
				c0,0.3-0.2,0.5-0.4,0.6l-8.5,1.9l-5.4,4.4C69.6,89.8,69.5,89.8,69.3,89.8z"/>
			<path d="M69.5,26.4C69.5,26.4,69.5,26.4,69.5,26.4l-4.6-0.2c-0.2,0-0.4-0.2-0.5-0.4c0,0-1-4-4.9-6.5c-0.3-0.2-0.3-0.5-0.2-0.8
				c0.2-0.3,0.5-0.3,0.8-0.2c3.5,2.3,4.9,5.6,5.2,6.8l3.4,0.2c-4.7-13.4-16.6-13.1-17.1-13.1c-0.3,0-0.6-0.2-0.6-0.5
				s0.2-0.6,0.5-0.6c0.1,0,13.7-0.4,18.4,14.6c0.1,0.2,0,0.4-0.1,0.5C69.8,26.4,69.7,26.4,69.5,26.4z"/>
			<path d="M69.3,89.8c0,0-0.1,0-0.1,0L17.6,78c-0.3-0.1-0.5-0.4-0.4-0.6l11.3-52.6c0.1-0.3,0.3-0.4,0.5-0.4c0,0,0,0,0,0
				c4.1,0.1,40.4,0.5,42.4,1.3c0.2,0.1,0.4,0.3,0.4,0.5l-2,63.2c0,0.2-0.1,0.3-0.2,0.4C69.6,89.8,69.5,89.8,69.3,89.8z"/>
			<path d="M59.4,37.1c-0.1,0-0.2,0-0.3,0c0,0-4-0.5-4-5.1c0-0.2,1.1-9.5-1-13.9c-0.5-1-1.5-1.7-2.6-1.7c-0.2,0-0.4,0-0.6,0.1
				c-1.6,0.3-4,1.1-6.3,2.5c-0.1,0-6.1,3.9-5.9,11.4c0,0.3,0,3.1-1.3,4.4c-0.4,0.4-0.9,0.6-1.5,0.6c-0.4,0-0.8-0.1-1.3-0.3
				c-0.1,0-0.2-0.1-0.2-0.2c-0.2-0.3-5.3-8,5.3-19.1c0.1-0.1,3.1-3.4,9.6-4.5c0.7-0.1,1.3-0.2,2-0.2c2.4,0,4.6,0.8,6.2,2.3
				c1.7,1.6,2.6,3.7,2.8,6.3l1,14.4c0,0.1,0.1,1.6-0.6,2.4C60.4,36.9,60,37.1,59.4,37.1z"/>
		</g>
		<g>
			<polyline class="st3" points="68.7,88.6 74.1,84.1 82.8,82.2 76.5,26.1 70.7,26 			"/>
			<path class="st3" d="M51,11c0,0,13.2-0.5,17.9,14.2L64.2,25c0,0-1-4.2-5.1-6.8"/>
			<path class="st3" d="M28.4,24.2c0,0,40.2,0.5,42.3,1.2l-2,63.2L17.1,76.8L28.4,24.2z"/>
			<path class="st3" d="M34.3,33.9c0,0-5.2-7.5,5.3-18.4c0,0,3-3.2,9.3-4.4c2.8-0.5,5.6,0.1,7.7,2c1.3,1.3,2.5,3.2,2.6,5.9l1,14.4
				c0,0,0.3,2.7-1.7,2.4c0,0-3.5-0.4-3.5-4.6c0,0,1.1-9.5-1-14.1c-0.7-1.5-2.3-2.2-3.8-1.9c-1.6,0.3-4.1,1.1-6.5,2.6
				c0,0-6.4,4-6.2,11.9C37.5,29.8,37.6,35.5,34.3,33.9z"/>
		</g>
		<g>
			<polyline class="st4" points="68.7,88.6 74.1,84.1 82.8,82.2 76.5,26.1 70.7,26 			"/>
			<path class="st4" d="M51,11c0,0,13.2-0.5,17.9,14.2L64.2,25c0,0-1-4.2-5.1-6.8"/>
			<path class="st4" d="M28.4,24.2c0,0,40.2,0.5,42.3,1.2l-2,63.2L17.1,76.8L28.4,24.2z"/>
			<path class="st4" d="M34.3,33.9c0,0-5.2-7.5,5.3-18.4c0,0,3-3.2,9.3-4.4c2.8-0.5,5.6,0.1,7.7,2c1.3,1.3,2.5,3.2,2.6,5.9l1,14.4
				c0,0,0.3,2.7-1.7,2.4c0,0-3.5-0.4-3.5-4.6c0,0,1.1-9.5-1-14.1c-0.7-1.5-2.3-2.2-3.8-1.9c-1.6,0.3-4.1,1.1-6.5,2.6
				c0,0-6.4,4-6.2,11.9C37.5,29.8,37.6,35.5,34.3,33.9z"/>
		</g>
	</g>
	<rect x="0.2" y="0.2" class="st0" width="99.5" height="99.4"/>
	
		<rect x="10.2" y="10.1" transform="matrix(-1.836970e-16 1 -1 -1.836970e-16 99.7577 -7.898095e-02)" class="st0" width="79.4" height="79.5"/>
	<g>
		<g>
			<line class="st59" x1="25.2" y1="18.2" x2="27.7" y2="18.2"/>
			<line class="st59" x1="20.4" y1="18.2" x2="22.8" y2="18.2"/>
		</g>
		<g>
			<line class="st59" x1="24" y1="17" x2="24" y2="14.6"/>
			<line class="st59" x1="24" y1="21.8" x2="24" y2="19.4"/>
		</g>
	</g>
	<g>
		<polyline class="st74" points="87.1,74.2 88.9,86.5 79.4,88.9 77.1,91.1 		"/>
		<circle class="st7" cx="76.3" cy="92" r="0.4"/>
	</g>
	<polyline class="st73" points="14,69.6 11.5,80.5 22.4,83.6 	"/>
	<g>
		<g>
			<path class="st75" d="M45.1,45.8c0.5,3.9-1.6,7.4-4.9,8.5c-0.4,0.1-0.8,0.2-1.2,0.3c-0.1,0-0.2,0-0.3,0c0,0,0,0,0,0
				c-3.8,0.3-7.2-2.7-7.8-7c-0.5-4.3,2.2-8.3,6.1-8.8c0.2,0,0.5,0,0.7-0.1l0,0c0.6,0,1.3,0.1,1.9,0.2C42.5,39.9,44.7,42.5,45.1,45.8
				z"/>
			<path class="st75" d="M41.7,54.3c-0.6,0.2-1.6,0.4-3,0.4c0.1,0,0.2,0,0.3,0c0.4-0.1,0.8-0.1,1.2-0.3c0.4,0,0.8,0,1.3,0
				C41.6,54.3,41.7,54.3,41.7,54.3z"/>
			<path class="st75" d="M47.6,45.8c0.5,4.1-2.1,7.9-5.8,8.5l0,0c-0.1,0-0.1,0-0.2,0c-0.4,0.1-0.8,0.1-1.3,0
				c3.2-1.1,5.3-4.6,4.9-8.5c-0.4-3.4-2.7-6-5.5-6.8c-0.6-0.2-1.2-0.3-1.9-0.2c0.3-0.1,1.9-0.3,3.9,0.3c0,0,0,0,0,0
				C44.6,40.1,47.1,42.3,47.6,45.8z"/>
		</g>
		<path class="st75" d="M56.4,44.9c0,0,2.4,1.1,1.1,2.4L37,68.5c0,0-2.3,0.4-3.5,0.2"/>
		<path class="st75" d="M51.8,44.5L31.2,66.2c0,0-0.5,1.3,0.8,2c0,0,1.7,1.4,3.1-0.3l21.3-23C56.4,44.9,55.4,43.8,51.8,44.5z"/>
		<g>
			<path class="st75" d="M57.9,62.6c0.5,3.9-1.6,7.4-4.9,8.5c-0.4,0.1-0.8,0.2-1.2,0.3c-0.1,0-0.2,0-0.3,0c0,0,0,0,0,0
				c-3.8,0.3-7.2-2.7-7.8-7c-0.5-4.3,2.2-8.3,6.1-8.8c0.2,0,0.5,0,0.7-0.1l0,0c0.6,0,1.3,0.1,1.9,0.2C55.2,56.7,57.5,59.3,57.9,62.6
				z"/>
			<path class="st75" d="M54.5,71.1c-0.6,0.2-1.6,0.4-3,0.4c0.1,0,0.2,0,0.3,0c0.4-0.1,0.8-0.1,1.2-0.3c0.4,0,0.8,0,1.3,0
				C54.3,71.1,54.4,71.1,54.5,71.1z"/>
			<path class="st75" d="M60.3,62.6c0.5,4.1-2.1,7.9-5.8,8.5l0,0c-0.1,0-0.1,0-0.2,0c-0.4,0.1-0.8,0.1-1.3,0
				c3.2-1.1,5.3-4.6,4.9-8.5c-0.4-3.4-2.7-6-5.5-6.8c-0.6-0.2-1.2-0.3-1.9-0.2c0.3-0.1,1.9-0.3,3.9,0.3c0,0,0,0,0,0
				C57.4,56.9,59.9,59.1,60.3,62.6z"/>
		</g>
	</g>
</g>
<g id="GUIDES">
</g>
</svg>
